# xmcd
#
# Track frame offsets: 
#        150
#        1480
#        16949
#        31593
#        51416
#        55750
#        89036
#        113569
#        132294
#        167942
#        177248
#
# Disc length: 2371 seconds
#
# Revision: 6
# Processed by: cddbd v1.5.2PL0 Copyright (c) Steve Scherf et al.
# Submitted via: ExactAudioCopy v0.95b3
#
DISCID=8809410b
DTITLE=Tankard - Chemical Invasion [2759679]
DYEAR=1987
DGENRE=Thrash Metal
TTITLE0=Intro
TTITLE1=Total Addiction
TTITLE2=Tantrum
TTITLE3=Don't Panic
TTITLE4=Puke
TTITLE5=For A Thousand Beers
TTITLE6=Chemical Invasion
TTITLE7=Farewell To A Slut
TTITLE8=Traitor
TTITLE9=Alcohol
TTITLE10=Outro
EXTD=YEAR: 1987
EXTT0=
EXTT1=
EXTT2=
EXTT3=
EXTT4=
EXTT5=
EXTT6=
EXTT7=
EXTT8=
EXTT9=
EXTT10=
PLAYORDER=
